<svg width="175" height="50" viewBox="0 0 175 50" fill="none" xmlns="http://www.w3.org/2000/svg">
<path fill-rule="evenodd" clip-rule="evenodd" d="M56.8435 12.5C58.0537 12.5 59.264 12.5 60.4741 12.5C60.4741 13.7101 60.4741 14.9204 60.4741 16.1304C59.3145 16.1304 58.1544 16.1304 56.9948 16.1304C56.9948 17.0884 56.9948 18.0466 56.9948 19.0044C55.2807 19.0044 53.5661 19.0044 51.8518 19.0044C51.8518 20.9204 51.8518 22.8368 51.8518 24.7527C53.8684 24.7527 55.8857 24.7527 57.9026 24.7527C57.852 25.761 57.8017 26.7695 57.7511 27.7779C55.785 27.7779 53.8181 27.7779 51.8518 27.7779C51.8518 29.7947 51.8518 31.812 51.8518 33.8287C54.171 33.8287 56.4909 33.8287 58.8102 33.8287C58.8102 34.7865 58.8102 35.7448 58.8102 36.7026C55.3817 36.7026 51.9524 36.7026 48.5241 36.7026C48.5241 29.7955 48.5241 22.8864 48.5241 15.9791C51.2969 15.9791 54.0707 15.9791 56.8435 15.9791C56.8435 14.8197 56.8435 13.6596 56.8435 12.5ZM19.1783 15.6766C24.1628 15.5433 26.5611 16.9823 28.1031 20.2146C28.0526 20.3155 28.0023 20.4164 27.9519 20.5171C27.0443 20.9205 26.1365 21.324 25.2291 21.7274C24.5204 19.3617 20.8265 17.4503 17.9682 19.307C15.8842 20.6608 14.8112 25.6771 15.6992 29.7443C16.8269 34.9086 23.6302 35.4776 25.5316 30.6521C25.6324 30.7528 25.7333 30.8537 25.8342 30.9546C26.6407 31.4083 27.4477 31.8622 28.2544 32.3159C28.2039 32.4671 28.1535 32.6185 28.1031 32.7698C27.1956 33.9405 26.4188 35.2884 25.0778 36.0977C15.9784 41.5882 9.34253 29.7823 12.8253 20.9711C14.0995 17.7845 16.0749 17.1017 19.1783 15.6766ZM66.5246 15.6766C70.7473 15.548 73.4408 16.4542 75.1467 18.7019C75.1467 18.8028 75.1467 18.9037 75.1467 19.0044C74.3906 19.6095 73.6341 20.2147 72.8777 20.8196C70.61 18.7491 66.856 17.5473 64.407 20.3658C64.3708 21.7561 64.5613 22.4261 64.8608 23.24C68.9722 25.1563 74.1395 24.6256 75.2982 29.442C75.7005 31.1458 75.2606 33.1806 74.5417 34.2825C71.8059 38.4753 59.9921 37.0447 60.4741 33.5261C61.1799 32.8202 61.8858 32.1142 62.5918 31.4084C63.0958 31.9126 63.6003 32.4169 64.1045 32.9211C67.3384 34.3395 73.4467 34.9937 71.8189 29.2905C69.5134 27.6923 65.1943 27.6785 62.8943 25.9627C60.4576 24.1451 60.4741 19.0217 62.8943 17.1892C64.1043 16.6851 65.3146 16.1808 66.5246 15.6766ZM84.374 15.6766C89.8521 15.551 91.0569 17.246 93.2988 20.2146C93.2483 20.3155 93.1979 20.4164 93.1476 20.5171C92.24 20.9709 91.3322 21.4248 90.4246 21.8785C89.6615 19.2859 85.7629 17.4469 82.8615 19.4582C80.947 20.7856 80.0459 25.3895 80.7437 29.1394C81.7454 34.641 88.856 36.3604 90.5759 30.8032C91.4835 31.257 92.3912 31.7109 93.2988 32.1647C92.3596 36.8614 84.8839 38.558 80.7437 35.6437C76.3938 32.5819 76.1794 22.5474 79.5336 18.2481C80.7154 16.7332 82.4716 16.5308 84.374 15.6766ZM153.957 15.6766C167.914 15.325 167.779 35.3014 156.377 37.1565C148.534 38.4786 144.882 29.4725 146.998 22.1812C148.194 18.1909 150.337 17.3019 153.957 15.6766ZM30.3721 15.9791C35.7162 15.8253 42.316 15.2388 44.4399 18.3995C46.8414 21.9733 44.7173 27.065 41.4146 27.9291C42.8765 30.8534 44.3391 33.7784 45.8013 36.7026C44.5408 36.7026 43.28 36.7026 42.0196 36.7026C40.6582 33.9297 39.2967 31.1559 37.9353 28.3831C36.574 28.3831 35.2125 28.3831 33.8511 28.3831C33.8511 31.1559 33.8511 33.9297 33.8511 36.7026C32.6917 36.7026 31.5316 36.7026 30.3721 36.7026C30.3721 29.7955 30.3721 22.8864 30.3721 15.9791ZM95.5678 15.9791C98.9961 15.9791 102.425 15.9791 105.854 15.9791C105.854 16.9875 105.854 17.9961 105.854 19.0044C103.535 19.0044 101.215 19.0044 98.8957 19.0044C98.8957 20.9204 98.8957 22.8368 98.8957 24.7527C100.912 24.7527 102.929 24.7527 104.946 24.7527C104.896 25.761 104.845 26.7695 104.795 27.7779C102.829 27.7779 100.862 27.7779 98.8957 27.7779C98.8957 29.7947 98.8957 31.812 98.8957 33.8287C101.215 33.8287 103.535 33.8287 105.854 33.8287C105.854 34.7865 105.854 35.7448 105.854 36.7026C102.425 36.7026 98.9961 36.7026 95.5678 36.7026C95.5678 29.7955 95.5678 22.8864 95.5678 15.9791ZM121.737 15.9791C122.796 15.9791 123.855 15.9791 124.913 15.9791C124.913 22.8864 124.913 29.7955 124.913 36.7026C123.549 36.7445 121.729 36.8275 120.829 36.4002C117.955 31.2576 115.081 26.1135 112.207 20.9711C112.157 20.9711 112.106 20.9711 112.056 20.9711C112.056 26.2144 112.056 31.4592 112.056 36.7026C110.947 36.7026 109.837 36.7026 108.728 36.7026C108.778 29.7955 108.829 22.8864 108.879 15.9791C110.207 15.9374 111.944 15.8685 112.812 16.2817C115.787 21.4746 118.762 26.6692 121.737 31.8621C121.737 26.5683 121.737 21.273 121.737 15.9791ZM128.544 36.7026C128.594 29.7955 128.645 22.8864 128.695 15.9791C132.928 15.8983 138.217 15.517 140.796 17.1892C145.196 20.0423 145.989 29.6439 142.46 34.131C140.033 37.2178 134.146 36.8051 128.544 36.7026ZM154.259 18.7019C152.911 19.3997 151.684 19.8612 150.931 21.1222C148.27 25.5785 150.321 35.199 156.225 34.131C162.857 32.9317 163.559 18.3855 154.259 18.7019ZM33.8511 19.0044C33.8511 21.1724 33.8511 23.3411 33.8511 25.509C36.1508 25.5405 38.9807 25.663 40.8095 25.2063C41.7773 23.939 42.0739 22.2231 41.5658 20.2146C40.3183 18.5479 36.7752 18.9441 33.8511 19.0044ZM132.023 19.0044C132.023 23.9454 132.023 28.8877 132.023 33.8287C138.733 34.0302 141.098 32.991 141.099 26.4165C141.099 24.3449 141.152 22.3917 140.342 21.1222C138.995 18.8815 135.822 18.8925 132.023 19.0044Z" fill="white"/>
</svg>
