<svg width="175" height="50" viewBox="0 0 175 50" fill="none" xmlns="http://www.w3.org/2000/svg">
<g clip-path="url(#clip0_11921_94429)">
<path fill-rule="evenodd" clip-rule="evenodd" d="M28.0377 11.2522C34.5005 11.1227 40.0715 16.6861 36.9304 23.5133C36.1394 25.2325 34.5918 26.1014 33.4271 27.4207C35.5648 35.2262 25.7201 42.2404 20.4924 36.8524C26.4182 37.7164 24.5763 31.3198 23.0524 28.0943C22.9625 28.1393 22.8727 28.1842 22.7828 28.229C21.8272 30.5387 22.4012 31.6906 23.8608 33.2145C21.2316 32.3897 21.4781 29.2107 22.7828 27.286C22.6931 27.0165 22.6032 26.7469 22.5135 26.4774C18.712 27.5588 20.9287 33.9024 23.5914 34.6966C23.5914 34.7414 23.5914 34.7863 23.5914 34.8313C18.7595 33.8946 19.9567 28.3751 22.1093 25.6691C21.9745 25.3997 21.8396 25.1301 21.705 24.8607C21.6152 24.9505 21.5253 25.0403 21.4356 25.1302C16.8446 27.3022 19.4544 33.0079 21.4356 35.5049C18.9266 34.4015 17.382 29.8319 19.0103 26.6122C19.7001 25.3967 21.5487 24.5518 21.166 23.2439C21.0762 23.3336 20.9863 23.4235 20.8966 23.5133C18.1 24.7078 16.1715 29.6086 17.7976 33.4839C18.3877 34.8901 19.6023 35.7518 20.4924 36.8524C17.2115 35.4343 15.5147 29.3281 17.7976 25.5344C18.601 24.1993 19.9083 23.4293 20.8966 22.3006C18.3351 15.6129 23.9623 12.98 28.0377 11.2522ZM54.4462 12.5995C57.9159 12.4969 62.0184 13.0038 63.7431 14.7553C63.2042 16.1025 62.6652 17.4503 62.1262 18.7974C60.0227 17.7145 52.9611 15.241 51.4819 18.7974C51.4819 19.2915 51.4819 19.7856 51.4819 20.2795C53.6496 24.3886 63.6199 20.8787 64.821 28.9029C66.1267 37.6259 49.7355 38.8346 45.5536 33.888C46.1373 32.5408 46.7214 31.1933 47.3051 29.8459C49.1488 31.1399 57.358 34.5106 59.1621 30.6544C59.207 30.2951 59.2518 29.9358 59.2967 29.5765C58.6679 26.7992 50.5959 26.4412 48.2482 24.7258C44.6164 22.0722 45.947 16.0723 49.1915 14.0817C50.7137 13.1621 52.5691 13.3281 54.4462 12.5995ZM32.3493 12.7342C28.023 15.0383 29.5865 17.7576 31.2714 21.627C31.406 21.5371 31.5409 21.4473 31.6756 21.3575C32.5878 19.1086 31.9217 17.8999 30.5977 16.5068C33.2459 17.3627 32.8912 20.6126 31.5409 22.4353C31.6306 22.7048 31.7205 22.9744 31.8102 23.2439C32.2704 23.1628 32.5274 22.8182 33.023 22.4353C34.6582 18.5081 33.5502 16.917 30.8671 14.89C35.6047 15.827 34.2921 21.5284 32.2146 24.0522C32.3043 24.3666 32.3942 24.681 32.4839 24.9955C36.8059 22.3091 35.8311 17.7615 33.1577 14.351C35.8338 15.5999 36.8917 20.6565 35.0439 23.6481C34.3806 24.7221 33.0137 25.1208 33.023 26.4774C33.0679 26.4774 33.1127 26.4774 33.1577 26.4774C37.9854 23.9111 38.8594 12.7021 32.3493 12.7342ZM68.3241 13.0037C70.1205 13.0037 71.9173 13.0037 73.7138 13.0037C73.6017 20.06 71.38 33.8506 80.0464 32.0017C86.9497 30.5291 82.3642 19.6906 84.0884 13.0037C85.8399 13.0037 87.5919 13.0037 89.3432 13.0037C89.4963 24.9922 91.0127 39.1433 76.8127 36.5829C66.4773 34.7192 68.1965 24.8509 68.3241 13.0037ZM93.3855 13.0037C101.22 12.8692 109.452 12.2371 112.383 17.0459C113.203 18.3905 113.765 20.7194 113.327 22.8397C111.977 29.3597 106.778 29.9787 98.775 29.8459C98.73 32.0015 98.6851 34.1578 98.6401 36.3133C96.8888 36.3133 95.1368 36.3133 93.3855 36.3133C93.3855 28.5443 93.3855 20.7728 93.3855 13.0037ZM122.758 29.8459C122.713 32.0015 122.668 34.1578 122.623 36.3133C120.827 36.2684 119.03 36.2236 117.234 36.1785C117.279 28.4544 117.324 20.7279 117.369 13.0037C123.536 12.8786 131.001 12.3739 134.48 15.0247C139.468 18.8242 137.762 26.3843 132.729 28.7681C134.435 31.238 136.142 33.7087 137.849 36.1785C137.849 36.2236 137.849 36.2684 137.849 36.3133C135.918 36.3133 133.986 36.3133 132.055 36.3133C130.618 34.1578 129.181 32.0015 127.743 29.8459C126.082 29.8459 124.42 29.8459 122.758 29.8459ZM150.11 13.0037C151.861 13.0037 153.613 13.0037 155.365 13.0037C158.823 20.7728 162.282 28.5443 165.739 36.3133C163.994 36.3501 161.216 36.6349 159.946 36.0438C158.329 29.5826 154.857 31.1678 147.281 31.3281C146.607 32.9897 145.933 34.6517 145.259 36.3133C143.418 36.2684 141.576 36.2236 139.735 36.1785C139.735 36.1337 139.735 36.0888 139.735 36.0438C143.193 28.3646 146.652 20.683 150.11 13.0037ZM98.775 17.4501C98.775 20.0996 98.775 22.7501 98.775 25.3997C103.27 25.5475 109.371 25.8533 107.937 20.2795C107.118 17.0979 102.881 17.3177 98.775 17.4501ZM122.758 17.4501C122.758 20.0996 122.758 22.7501 122.758 25.3997C126.901 25.5351 131.128 25.8164 131.92 22.57C133.264 17.0667 127.263 17.3056 122.758 17.4501ZM152.67 18.5279C151.502 21.4021 150.334 24.277 149.167 27.1513C151.547 27.1513 153.928 27.1513 156.308 27.1513C156.308 27.1063 156.308 27.0614 156.308 27.0165C155.095 24.1873 153.883 21.3571 152.67 18.5279Z" fill="white"/>
</g>
<defs>
<clipPath id="clip0_11921_94429">
<rect width="175" height="50" fill="white"/>
</clipPath>
</defs>
</svg>
