<svg width="175" height="50" viewBox="0 0 175 50" fill="none" xmlns="http://www.w3.org/2000/svg">
<g clip-path="url(#clip0_11921_94338)">
<path d="M25.4374 10C21.3404 10 11.25 20.2235 11.25 24.3749C11.25 28.5263 21.3404 38.75 25.4374 38.75C29.5344 38.75 39.6249 28.5261 39.6249 24.3749C39.6249 20.2237 29.5345 10 25.4374 10ZM23.2265 32.595C21.4988 32.118 16.8539 23.8853 17.3247 22.1348C17.7956 20.3842 25.9207 15.6779 27.6483 16.155C29.376 16.632 34.021 24.8645 33.5502 26.6151C33.0793 28.3657 24.9541 33.0721 23.2265 32.595Z" fill="white"/>
<path d="M60.3215 28.1872V28.182L52.2596 13.1159C52.1009 12.8193 51.6623 12.8903 51.6028 13.2222L47.5878 35.598C47.5485 35.8173 47.7147 36.0191 47.9347 36.0191H51.0411C51.2115 36.0191 51.3575 35.8956 51.388 35.7257L53.7261 22.6698L60.0107 34.8094C60.1427 35.0644 60.5031 35.0644 60.6351 34.8094L66.9197 22.6698L69.2579 35.7257C69.2883 35.8956 69.4343 36.0191 69.6048 36.0191H72.7111C72.9311 36.0191 73.0973 35.8173 73.058 35.598L69.043 13.2222C68.9835 12.8903 68.5449 12.8193 68.3862 13.1159L60.3215 28.1872Z" fill="white"/>
<path d="M86.1232 13.5371C79.7283 13.5371 74.7188 18.5723 74.7188 25.0014C74.7188 31.4305 79.7283 36.4685 86.1232 36.4685C92.5016 36.4685 97.4986 31.4319 97.4986 25.0014C97.4986 18.5709 92.5016 13.5371 86.1232 13.5371ZM86.1232 32.6298C81.953 32.6298 78.6857 29.2786 78.6857 25.0014C78.6857 20.7242 81.953 17.3758 86.1232 17.3758C90.2768 17.3758 93.5317 20.7256 93.5317 25.0014C93.5317 29.2772 90.2768 32.6298 86.1232 32.6298Z" fill="white"/>
<path d="M115.073 27.632L101.701 13.0484C101.483 12.8106 101.09 12.9669 101.09 13.2915V35.6625C101.09 35.8597 101.248 36.0197 101.442 36.0197H104.675C104.87 36.0197 105.028 35.8597 105.028 35.6625V22.3474L118.371 36.9585C118.588 37.1971 118.982 37.0409 118.982 36.7159V14.345C118.982 14.1477 118.824 13.9877 118.629 13.9877H115.426C115.231 13.9877 115.073 14.1477 115.073 14.345V27.632Z" fill="white"/>
<path d="M122.416 36.0195H125.887C126.024 36.0195 126.149 35.9385 126.207 35.8121L128.807 30.106H137.123L139.664 35.8093C139.721 35.9373 139.847 36.0195 139.986 36.0195H143.752C144.012 36.0195 144.183 35.7441 144.07 35.5069L133.401 13.1374C133.273 12.8683 132.895 12.8683 132.766 13.1374L122.098 35.5069C121.985 35.7441 122.155 36.0195 122.416 36.0195ZM130.437 26.5657L133.022 20.8832L135.557 26.5657H130.437Z" fill="white"/>
<path d="M152.492 13.9883H147.157C146.963 13.9883 146.805 14.1482 146.805 14.3455V35.663C146.805 35.8603 146.963 36.0202 147.157 36.0202H152.492C159.105 36.0202 163.214 31.799 163.214 25.0029C163.214 18.2067 159.105 13.9883 152.492 13.9883ZM152.492 32.2404H150.772V17.7387H152.492C156.785 17.7387 159.248 20.3866 159.248 25.0029C159.248 29.6023 156.785 32.2404 152.492 32.2404Z" fill="white"/>
</g>
<defs>
<clipPath id="clip0_11921_94338">
<rect width="151.964" height="28.75" fill="white" transform="translate(11.25 10)"/>
</clipPath>
</defs>
</svg>
