<svg width="125" height="50" viewBox="0 0 125 50" fill="none" xmlns="http://www.w3.org/2000/svg">
<path fill-rule="evenodd" clip-rule="evenodd" d="M16.1319 5H33.1041C35.812 5 37.986 7.13445 37.986 9.79316V26.4569C37.986 29.1156 35.7739 31.25 33.1041 31.25H16.1319C13.424 31.25 11.25 29.1156 11.25 26.4569V9.79316C11.25 7.13445 13.424 5 16.1319 5ZM32.5701 15.0731C32.5701 13.1259 30.9683 11.5532 28.985 11.5532C27.0017 11.5532 25.3999 13.1259 25.4761 15.0731C25.4761 15.6723 25.5905 16.2339 25.8957 16.7582C26.3152 16.3837 26.8492 16.1216 27.3831 15.9344C27.2306 15.6723 27.1543 15.3727 27.1543 15.0731C27.1543 14.0621 27.9934 13.2382 29.0231 13.2382C30.0529 13.2382 30.892 14.0621 30.892 15.0731C30.892 15.3727 30.8157 15.6723 30.6631 15.9344C31.1971 16.1216 31.6929 16.4212 32.1506 16.7582C32.4176 16.2339 32.5701 15.6723 32.5701 15.0731ZM16.6658 21.1769C16.6658 23.1241 18.2677 24.6968 20.251 24.6968C22.2343 24.6968 23.8361 23.1241 23.8361 21.1769H22.1199C22.1199 22.1879 21.2808 23.0118 20.251 23.0118C19.2212 23.0118 18.3821 22.1879 18.3821 21.1769H16.6658ZM16.0937 15.6723C16.0937 17.919 17.9626 19.7539 20.251 19.7539C22.5394 19.7539 24.4082 17.919 24.4463 15.6723C24.4463 13.388 22.5394 11.5532 20.251 11.5532C17.9626 11.5532 16.0937 13.4255 16.0937 15.6723ZM24.7896 20.6152C24.7896 22.862 26.6966 24.6968 28.985 24.6968C31.2734 24.6968 33.1422 22.862 33.1422 20.6152C33.1422 18.331 31.2734 16.4961 28.985 16.4961C26.6585 16.4961 24.7896 18.331 24.7896 20.6152ZM28.985 22.9743C30.358 22.9743 31.4641 21.9258 31.4641 20.5777C31.4641 19.2671 30.358 18.1812 28.985 18.1437C27.6119 18.1437 26.5059 19.2297 26.5059 20.5777C26.5059 21.8884 27.6119 22.9743 28.985 22.9743ZM20.2129 18.1063C21.5859 18.1063 22.692 17.0203 22.692 15.6723C22.692 14.3242 21.624 13.2382 20.2129 13.2382C18.8398 13.2382 17.7337 14.3242 17.7337 15.6723C17.7337 17.0203 18.8398 18.1063 20.2129 18.1063ZM63.1951 22.2636C62.623 22.039 62.1272 21.702 61.6695 21.2526C61.2499 20.8032 60.9067 20.3165 60.6397 19.7548C60.4109 19.1931 60.2583 18.5565 60.2583 17.9199C60.2583 17.2833 60.3727 16.6841 60.6397 16.085C60.8686 15.5233 61.2118 15.0365 61.6695 14.5871C62.089 14.1752 62.623 13.8382 63.1951 13.5761C63.7674 13.3514 64.4158 13.2016 65.0642 13.2016C65.7125 13.2016 66.3226 13.314 66.9326 13.5761C67.5049 13.8007 68.0005 14.1378 68.42 14.5871C68.84 14.9991 69.1828 15.5233 69.4117 16.085C69.6789 16.6841 69.7934 17.2833 69.7934 17.9199C69.7934 18.5565 69.6789 19.1556 69.4117 19.7548C69.1828 20.3165 68.84 20.8032 68.3822 21.2526C67.9244 21.6645 67.4288 22.0016 66.8565 22.2636C66.2843 22.4883 65.6359 22.6381 64.9875 22.6381C64.3775 22.6381 63.7674 22.5258 63.1951 22.2636ZM62.5086 12.0782C61.7458 12.4152 61.0211 12.8646 60.449 13.4637C59.8388 14.0629 59.3811 14.7369 59.0378 15.4858C58.6946 16.2722 58.542 17.0961 58.542 17.9573C58.542 18.8186 58.6946 19.6424 59.0378 20.4288C59.3811 21.1777 59.8388 21.8892 60.449 22.4509C61.0593 23.05 61.7458 23.4994 62.5086 23.8364C63.3095 24.1734 64.1486 24.3232 65.0258 24.3232C65.9031 24.3232 66.7421 24.1734 67.5432 23.8364C68.306 23.4994 69.0305 23.05 69.6028 22.4509C70.2128 21.8518 70.6706 21.1777 71.014 20.4288C71.3568 19.6424 71.5096 18.8186 71.5096 17.9573C71.5096 17.0961 71.3568 16.2722 71.014 15.4858C70.6706 14.7369 70.2128 14.0254 69.6028 13.4637C68.9922 12.8646 68.306 12.4152 67.5432 12.0782C66.7421 11.7412 65.9031 11.5914 65.0258 11.5914C64.1486 11.5914 63.3095 11.7412 62.5086 12.0782ZM48.6638 12.0782C47.901 12.4152 47.1764 12.8646 46.6043 13.4637C45.9559 14.0254 45.4982 14.7369 45.1931 15.4858C44.8498 16.2722 44.6973 17.1335 44.6973 17.9573C44.6973 18.8186 44.888 19.6424 45.1931 20.4662C45.4982 21.2152 45.994 21.8892 46.6043 22.4883C47.2145 23.0875 47.901 23.5369 48.6638 23.8739C49.4647 24.2109 50.342 24.3606 51.1811 24.3606C52.0582 24.3606 52.8973 24.1734 53.6983 23.8739C54.4992 23.5369 55.1857 23.0875 55.7578 22.5258C56.3681 21.9266 56.8258 21.2526 57.169 20.4662C57.2453 20.3165 57.3216 20.1292 57.3597 19.942H55.4527C55.2239 20.4288 54.9188 20.8782 54.4992 21.2901C54.0797 21.702 53.5457 22.039 52.9736 22.3011C52.4015 22.5258 51.7532 22.6756 51.1048 22.6756C50.4564 22.6756 49.8461 22.5633 49.2741 22.3011C48.702 22.0764 48.2062 21.7394 47.7485 21.2901C47.3289 20.8407 46.9857 20.3539 46.7187 19.7922C46.4899 19.2305 46.3373 18.5939 46.3373 17.9573C46.3373 17.3207 46.4517 16.7216 46.7187 16.1225C46.9475 15.5608 47.2908 15.0739 47.7485 14.6246C48.168 14.2127 48.702 13.8757 49.2741 13.6135C49.8461 13.3888 50.4945 13.239 51.1429 13.239C51.7913 13.239 52.4015 13.3514 53.0117 13.6135C53.5838 13.8382 54.0797 14.1752 54.5373 14.6246C54.9188 14.9991 55.2239 15.4484 55.4908 15.9727H57.3979C57.3684 15.8281 57.3162 15.7059 57.2588 15.5715L57.2587 15.5712C57.2418 15.5316 57.2245 15.491 57.2071 15.4484C56.8639 14.6995 56.4062 13.988 55.796 13.4263C55.2239 12.8646 54.4992 12.3778 53.7364 12.0408C52.9355 11.7037 52.0964 11.554 51.2192 11.554C50.3038 11.5914 49.4266 11.7412 48.6638 12.0782ZM73.5308 24.3606H75.2854V11.5914H73.5308V24.3606ZM95.2322 16.085C95.2322 14.3999 96.6434 13.0144 98.3602 13.0144C100.076 13.0144 101.449 14.3999 101.449 16.085C101.449 17.7326 100.076 19.1182 98.3602 19.1182C96.6056 19.1182 95.2322 17.7701 95.2322 16.085ZM93.6688 16.1225C93.6688 18.6314 95.7667 20.5785 98.4363 20.5785H99.5042L97.4446 24.4356H99.1992L102.441 18.3692C102.899 17.5454 103.089 16.7965 103.089 16.085C103.089 13.5761 101.03 11.5914 98.398 11.5914C95.7284 11.554 93.6688 13.5761 93.6688 16.1225ZM106.102 20.5785C106.102 19.1182 107.323 17.9573 108.81 17.9573C110.336 17.9573 111.556 19.1182 111.556 20.5785C111.556 22.039 110.336 23.2373 108.81 23.2373C107.285 23.2373 106.102 22.039 106.102 20.5785ZM106.98 14.7369C106.98 13.7633 107.78 12.9395 108.772 12.9395C109.764 12.9395 110.603 13.7633 110.603 14.7369C110.603 15.7105 109.764 16.5344 108.772 16.5344C107.819 16.5344 106.98 15.7105 106.98 14.7369ZM105.53 14.7369C105.53 15.4484 105.759 16.1225 106.178 16.6841L106.522 17.1709L106.064 17.5454C105.149 18.2943 104.615 19.4177 104.615 20.5785C104.615 22.8253 106.484 24.6603 108.772 24.6603C111.099 24.6603 112.967 22.8253 112.967 20.5785C112.967 19.3803 112.433 18.2943 111.518 17.508L111.06 17.1335L111.442 16.6467C111.862 16.1225 112.091 15.4484 112.091 14.7369C112.091 12.9769 110.641 11.5914 108.81 11.5914C106.941 11.554 105.53 12.9395 105.53 14.7369ZM89.4352 11.5914V21.5147C89.4352 22.0764 89.1302 22.4135 88.5962 22.4509C88.0623 22.4509 87.7573 22.039 87.6428 21.8143L83.6381 13.314C83.4092 12.7897 83.0659 12.3778 82.5703 12.0408C82.1125 11.7412 81.5786 11.5914 81.0063 11.5914C80.3196 11.5914 79.7096 11.8161 79.214 12.1906C79.1948 12.1906 79.1852 12.1999 79.1756 12.2093C79.1661 12.2186 79.1565 12.228 79.1373 12.228C78.5656 12.7148 78.2984 13.314 78.2984 14.0254V24.3606H80.1674V14.2876C80.1674 13.7633 80.5485 13.3888 81.0446 13.3888C81.4258 13.3888 81.7691 13.6135 81.998 14.0629L82.0364 14.1378C82.9898 16.1973 85.0872 20.6909 86.3461 23.0875C86.7656 23.8739 87.4901 24.2484 88.6346 24.2484C89.3207 24.2484 89.9691 24.0611 90.4652 23.6492C91.037 23.1998 91.342 22.8254 91.342 21.9266V11.5914H89.4352ZM36.9175 47.542L34.0566 38.792H36.6823L38.1656 44.5256H38.2472L39.9416 38.792H42.0825L43.777 44.5385H43.8586L45.3466 38.792H47.9675L45.1114 47.542H42.8217L41.0505 42.2356H40.9737L39.2024 47.542H36.9175ZM50.9526 47.542H48.3989L51.7158 38.792H54.8791L58.196 47.542H55.6423L54.9943 45.7048H51.5993L50.9526 47.542ZM53.3334 40.9966L54.4276 44.0984H52.1648L53.2566 40.9966H53.3334ZM60.2006 38.792V47.542H66.6665V45.8245H62.5767V38.792H60.2006ZM68.8427 47.542V38.792H71.2188V45.8245H75.3085V47.542H68.8427ZM77.4848 38.792V47.542H84.3394V45.8245H79.8608V44.0258H83.989V42.304H79.8608V40.5095H84.3394V38.792H77.4848ZM86.452 40.5095V38.792H94.7611V40.5095H91.7802V47.542H89.4377V40.5095H86.452Z" fill="white"/>
</svg>
