<svg width="175" height="50" viewBox="0 0 175 50" fill="none" xmlns="http://www.w3.org/2000/svg">
<path fill-rule="evenodd" clip-rule="evenodd" d="M15.7021 10.0003C27.3789 10 35.5949 17.8968 31.9291 29.2727C29.157 37.8751 16.5985 43.7183 8.43224 36.0442C10.3424 33.3678 13.4693 29.6449 16.2212 27.8404C16.351 27.8404 16.481 27.8404 16.6108 27.8404C16.8703 29.3594 17.1301 30.8789 17.3897 32.398C18.0076 32.2861 17.7759 32.4132 18.0388 32.0073C18.2551 30.8355 18.4715 29.6633 18.6879 28.4915C18.7311 28.4915 18.7743 28.4915 18.8177 28.4915C20.8079 29.9237 22.7989 31.3565 24.7891 32.7886C24.9623 32.7019 25.1353 32.615 25.3085 32.5283C25.3085 32.4848 25.3085 32.4415 25.3085 32.398C23.8373 30.3147 22.3658 28.2308 20.8946 26.1474C20.938 26.1041 20.9812 26.0607 21.0246 26.0172C22.231 25.9858 24.4043 25.7976 25.0489 25.1057C24.9191 24.9321 24.7891 24.7585 24.6593 24.5849C23.4478 24.4112 22.236 24.2376 21.0246 24.064C21.0246 23.9338 21.0246 23.8035 21.0246 23.6734C22.4523 21.8071 23.8807 19.9401 25.3085 18.0739C25.2651 17.8569 25.2219 17.6398 25.1787 17.4228C25.0055 17.4228 24.8325 17.4228 24.6593 17.4228C22.6691 18.855 20.6781 20.2878 18.6879 21.72C18.6445 21.6766 18.6013 21.6332 18.5579 21.5899C18.3849 20.3312 18.2118 19.0721 18.0388 17.8135C17.9522 17.77 17.8656 17.7267 17.779 17.6833C17.606 17.77 17.4329 17.8569 17.2599 17.9437C17.0937 18.9874 17.1041 21.003 16.481 21.72C14.3044 20.7067 12.6904 17.8017 10.12 17.4228C10.0766 17.5529 10.0334 17.6833 9.99004 17.8135C11.4613 19.8534 12.9327 21.8938 14.4039 23.9337C14.3606 24.0205 14.3173 24.1074 14.2741 24.1941C12.9487 24.1736 11.33 24.3681 10.3796 24.8452C10.4228 25.0623 10.4661 25.2794 10.5094 25.4963C11.9805 25.7568 13.452 26.0173 14.9232 26.2778C14.9232 26.3211 14.9232 26.3645 14.9232 26.4079C12.9491 29.2901 9.64122 32.2589 6.87445 34.3512C6.78799 34.3512 6.7014 34.3512 6.61494 34.3512C5.53889 32.8109 4.41936 31.2473 3.75885 29.2727C1.05997 21.2038 5.50383 10.6246 15.6998 10L15.7021 10.0003ZM89.5676 15.3392C90.3873 16.3811 90.3066 17.1394 91.9043 17.4228C91.9043 17.5096 91.9043 17.5964 91.9043 17.6833C90.3851 17.8057 90.2953 18.6308 89.6975 19.6366C89.6541 19.6366 89.6109 19.6366 89.5676 19.6366C89.3641 17.988 88.4989 18.3969 87.6203 17.4228C88.6134 17.2818 89.1393 16.9405 89.4378 16.1207C89.4811 15.8602 89.5243 15.5996 89.5676 15.3392ZM82.168 16.1207C83.0767 16.1207 83.9855 16.1207 84.8943 16.1207C84.8509 21.7629 84.8077 27.4068 84.7644 33.0491C83.899 33.0057 83.0335 32.9623 82.168 32.919C82.168 27.3201 82.168 21.7194 82.168 16.1207ZM117.089 16.1207C119.033 16.0363 120.827 16.1543 122.152 16.7718C123.182 17.2521 126.705 20.3683 125.527 21.4596C124.748 21.6766 123.969 21.8937 123.19 22.1107C120.734 16.3384 114.315 18.173 113.454 24.3245C112.911 28.2006 116.749 32.7523 121.113 30.1842C122.306 29.5296 122.494 28.2542 123.32 27.3194C124.185 27.6233 125.051 27.9271 125.916 28.2309C123.875 33.0106 116.316 35.9296 112.415 30.7052C109.823 27.2324 110.042 20.2452 113.454 17.6833C114.495 16.9011 115.942 16.7837 117.089 16.1207ZM40.1074 16.5113C40.9729 16.5113 41.8386 16.5113 42.7038 16.5113C44.5643 20.3306 46.4255 24.1512 48.286 27.9705C48.3725 27.9271 48.4591 27.8838 48.5457 27.8404C50.4061 24.0643 52.2672 20.2873 54.1276 16.5113C54.9065 16.5113 55.6856 16.5113 56.4643 16.5113C56.4211 22.0234 56.3779 27.537 56.3346 33.0491C55.41 33.084 54.4298 33.0614 53.8681 32.7886C53.8248 29.4467 53.7815 26.1038 53.7383 22.7618C53.7383 22.8486 53.7383 22.9354 53.7383 23.0223C52.0508 26.3642 50.3628 29.7071 48.6753 33.0491C48.4158 33.0057 48.1561 32.9623 47.8964 32.919C46.1659 29.5335 44.4346 26.1472 42.7038 22.7618C42.6605 26.1905 42.6173 29.6204 42.574 33.0491C41.752 33.0057 40.9296 32.9623 40.1074 32.919C40.1074 27.4503 40.1074 21.9799 40.1074 16.5113ZM130.59 16.5113C130.59 18.2474 130.59 19.9839 130.59 21.72C131.325 21.2861 132.061 20.8518 132.796 20.4178C138.227 18.6193 139.546 23.271 139.547 27.71C139.547 29.024 139.979 32.1508 139.287 32.919C138.465 32.919 137.643 32.919 136.821 32.919C136.922 29.4421 137.463 23.9897 134.873 23.0223C133.756 22.4596 132.393 23.2145 131.758 23.6734C131.498 24.3243 131.239 24.9756 130.979 25.6267C130.598 27.5643 131.898 31.6562 130.719 32.919C130.08 33.3591 128.565 33.1428 128.253 32.6584C128.253 27.2766 128.253 21.8932 128.253 16.5113C129.032 16.5113 129.811 16.5113 130.59 16.5113ZM155.644 17.0322C156.509 17.0756 157.375 17.1189 158.24 17.1624C158.197 17.9436 158.154 18.725 158.111 19.5062C156.944 19.5988 155.933 19.5949 155.384 18.9855C155.567 18.3112 155.439 17.4579 155.644 17.0322ZM63.864 20.2877C67.8365 20.1468 72.4488 23.4528 70.4845 27.58C67.5856 27.58 64.6859 27.58 61.7869 27.58C61.7869 27.7101 61.7869 27.8404 61.7869 27.9705C62.9119 31.9275 65.7395 30.9694 68.018 29.0122C68.8401 29.2727 69.6625 29.5333 70.4845 29.7936C70.4845 29.8371 70.4845 29.8804 70.4845 29.9238C69.1701 33.406 63.5942 34.5402 60.6186 31.7469C58.1806 29.5498 58.2793 23.5527 60.8782 21.5899C61.7645 20.9203 62.7312 20.7649 63.864 20.2877ZM99.5635 20.2877C104.901 20.1603 105.664 22.934 105.665 28.1008C105.622 29.7067 105.578 31.313 105.535 32.919C104.769 33.1573 103.481 33.0853 102.809 32.7886C102.932 29.1789 103.063 25.335 101.64 23.2826C94.4998 20.9808 98.5102 29.11 96.8372 33.0491C95.8824 33.0845 94.8525 33.0729 94.241 32.7886C94.2103 29.839 93.5216 22.7944 94.5005 20.5481C95.2362 20.5915 95.9719 20.6348 96.7076 20.6782C96.7076 21.0255 96.7076 21.3728 96.7076 21.72C97.6594 21.2426 98.6116 20.7651 99.5635 20.2877ZM150.192 33.0491C150.149 32.5283 150.105 32.0073 150.062 31.4864C149.759 31.7904 149.456 32.0942 149.153 32.398C146.473 33.5491 140.196 33.7597 141.624 28.6216C142.486 25.5211 146.45 25.503 149.802 24.8452C149.716 24.4547 149.629 24.0639 149.543 23.6734C147.563 22.1628 145.862 23.0059 144.48 24.4546C143.701 24.1943 142.922 23.9337 142.143 23.6734C142.187 23.5432 142.23 23.4128 142.273 23.2826C143.179 20.6807 147.865 19.0221 150.841 21.0689C152.771 22.3966 153.399 29.5652 152.399 33.0491C151.663 33.0491 150.927 33.0491 150.192 33.0491ZM166.808 20.2877C173.84 20.1365 173.038 26.1155 172.91 32.919C171.958 32.919 171.006 32.919 170.054 32.919C170.156 29.321 170.721 23.9811 168.107 23.0223C166.989 22.4596 165.626 23.2145 164.991 23.6734C164.731 24.3243 164.472 24.9756 164.212 25.6267C163.846 27.5146 165.134 31.664 163.952 32.919C163.13 32.919 162.308 32.919 161.486 32.919C161.529 28.7957 161.572 24.6713 161.616 20.5481C162.351 20.5915 163.087 20.6348 163.823 20.6782C163.909 21.0255 163.996 21.3728 164.082 21.72C164.255 21.5464 164.428 21.3728 164.601 21.1992C165.337 20.8953 166.073 20.5915 166.808 20.2877ZM73.2108 20.5481C73.9463 20.5915 74.682 20.6348 75.4177 20.6782C75.4609 21.2424 75.5041 21.8069 75.5475 22.3712C76.5473 21.5039 77.809 20.0636 79.9611 20.6782C79.9611 21.5029 79.9611 22.3278 79.9611 23.1525C73.5593 22.5285 77.3787 28.7777 75.5475 33.0491C74.7394 33.0968 73.4857 33.1812 73.081 32.7886C72.5456 31.4711 72.7016 21.6535 73.2108 20.5481ZM88.529 20.5481C89.4839 20.5127 90.5384 20.5243 91.1254 20.8086C91.1561 23.7582 91.8927 30.8907 90.8657 33.0491C90.0577 33.0968 88.8041 33.1812 88.3992 32.7886C87.8639 31.4711 88.02 21.6535 88.529 20.5481ZM155.774 20.5481C156.596 20.5915 157.418 20.6348 158.24 20.6782C158.271 22.61 158.684 32.1215 157.981 32.919C157.159 32.919 156.336 32.919 155.514 32.919C155.483 30.2478 154.889 22.4246 155.774 20.5481ZM64.6429 22.6315C63.3195 23.181 61.6805 23.6566 62.0464 25.4963C63.7046 25.5342 66.7226 25.8895 67.8883 25.236C67.58 24.2208 67.3705 23.4403 66.4603 23.0223C65.8545 22.8921 65.2486 22.7617 64.6429 22.6315ZM149.023 27.1893C147.106 27.9821 144.368 27.3018 144.35 30.0541C144.566 30.2711 144.783 30.4882 144.999 30.7052C147.309 32.8141 149.7 29.4184 149.802 27.4497C149.759 27.3629 149.716 27.276 149.673 27.1893C149.456 27.1893 149.24 27.1893 149.023 27.1893Z" fill="white"/>
</svg>
