<svg width="140" height="40" viewBox="0 0 140 40" fill="none" xmlns="http://www.w3.org/2000/svg">
<path fill-rule="evenodd" clip-rule="evenodd" d="M32.6793 13.3845L20.0311 6.08203L7.38281 13.3845V27.9894L20.0311 35.292L32.6793 27.9894V13.3845ZM10.0641 28.0588L18.6358 33.0077L15.7785 28.0588H10.0641ZM16.7808 27.6212L20.2746 33.6727L31.1405 27.3991L27.6467 21.3477L16.7808 27.6212ZM28.5271 20.6989L31.3987 25.6727V15.725L28.5271 20.6989ZM31.1508 13.9808L27.6528 20.0397L16.7868 13.7663L20.2849 7.70729L31.1508 13.9808ZM18.6565 8.3544L15.7789 13.3384H10.0239L18.6565 8.3544ZM15.6458 14.4251H8.66342V26.972H15.6458V14.4251ZM16.7326 26.3941L26.6089 20.6919L16.7326 14.9898V26.3941ZM67.1658 27.5139V14.2598H64.9883V27.5139H67.1658ZM50.9139 15.4339C51.3874 15.7937 51.766 16.2292 52.0123 16.7215C52.2775 17.2327 52.3909 17.7818 52.3909 18.3688C52.3909 18.9558 52.2775 19.5048 52.0123 19.9971C51.766 20.4895 51.3874 20.9249 50.9139 21.2847C50.4597 21.6255 49.9105 21.8906 49.2856 22.0799C48.6799 22.2503 47.9981 22.345 47.2599 22.345H44.0408V27.6467H41.8633V14.3926H47.2599C47.9981 14.3926 48.6799 14.4683 49.2856 14.6576C49.9105 14.828 50.4597 15.0931 50.9139 15.4339ZM49.5131 19.751C49.7402 19.5806 49.9105 19.3912 50.0242 19.164C50.1568 18.9179 50.2136 18.6528 50.2136 18.3688C50.2136 18.0659 50.1568 17.8007 50.0242 17.5546C49.9105 17.3274 49.7591 17.138 49.5319 16.9676C49.2856 16.7973 48.9827 16.6458 48.6042 16.5322C48.2252 16.4375 47.7709 16.3807 47.2599 16.3807H44.0408V20.3569H47.2599C47.7709 20.3569 48.2252 20.3001 48.6042 20.1865C48.9827 20.0918 49.2856 19.9403 49.5131 19.751ZM52.7969 22.7798C52.7969 20.0533 55.1827 17.8379 58.1174 17.8379C61.0712 17.8379 63.457 20.0533 63.457 22.7798C63.457 25.5064 61.0712 27.7217 58.1174 27.7217C55.1827 27.7217 52.7969 25.5064 52.7969 22.7798ZM54.9744 22.7798C54.9744 24.4081 56.3945 25.7335 58.1174 25.7335C59.8594 25.7335 61.2795 24.4081 61.2795 22.7798C61.2795 21.1514 59.8594 19.826 58.1174 19.826C56.3945 19.826 54.9744 21.1514 54.9744 22.7798ZM76.7457 18.0645H79.1123L79.0178 18.2537L73.0155 31.3185H70.6486L72.5233 27.2286L68.3008 18.0645H70.6678L73.6404 25.0512L75.9882 19.6928L76.7457 18.0645ZM89.3347 27.5139L89.3155 22.3637C89.3347 21.4169 89.1828 20.2999 88.4821 19.3152C88.1417 18.8419 87.6301 18.4064 87.0244 18.1224C86.4379 17.8383 85.7372 17.7437 85.1314 17.7626C84.8282 17.7815 84.5064 17.8194 84.2032 17.8952C83.8814 17.9899 83.5788 18.1035 83.3134 18.2549C82.9723 18.4632 82.6698 18.7094 82.4237 18.9933V14.2598H80.2461V27.5139H82.4237V22.7045C82.4328 22.6488 82.4374 22.593 82.442 22.5373C82.4468 22.4794 82.4517 22.4216 82.4615 22.3637C82.4993 21.9471 82.5942 21.5684 82.7455 21.2087C82.916 20.8679 83.1243 20.546 83.389 20.2999C83.6352 20.0726 83.9192 19.9211 84.2224 19.8264C84.5064 19.7507 84.8089 19.7128 85.1314 19.7507C85.775 19.8075 86.2295 20.0347 86.5891 20.4892C86.7597 20.7164 86.9109 21.0004 87.0058 21.3223C87.1 21.6442 87.1378 21.966 87.1378 22.3637V27.5139H89.3347ZM101.283 23.594H100.905H93.0096C93.4448 24.8247 94.7891 25.7335 96.3795 25.7335C97.459 25.7335 98.4622 25.317 99.1065 24.6543L101.132 25.5064C100.09 26.8697 98.3302 27.7217 96.3795 27.7217C93.2557 27.7217 90.6992 25.5064 90.6992 22.7798C90.6992 20.0533 93.0852 17.8379 96.0199 17.8379C98.9738 17.8379 101.359 20.0533 101.359 22.7798C101.359 23.0638 101.341 23.3289 101.283 23.594ZM96.0199 19.826C94.6 19.826 93.3884 20.7349 93.0096 21.9656H99.0494C98.6706 20.7349 97.459 19.826 96.0199 19.826ZM111.323 14.2598V19.3531C110.906 18.9365 110.394 18.5579 109.826 18.2928C109.201 18.0088 108.501 17.8573 107.781 17.8383C107.081 17.8383 106.361 17.952 105.699 18.1981C105.036 18.4632 104.449 18.8419 103.957 19.2963C102.992 20.2241 102.442 21.5116 102.461 22.7802C102.442 24.0489 102.992 25.3364 103.957 26.2642C104.449 26.7375 105.036 27.1162 105.699 27.3623C106.361 27.6275 107.081 27.7411 107.781 27.7221C108.501 27.7032 109.201 27.5517 109.826 27.2677C110.394 27.0026 110.906 26.6428 111.323 26.2074V27.5138H113.499V14.2598H111.323ZM110.167 25.0145C109.826 25.2796 109.429 25.4689 109.031 25.5825C108.615 25.6961 108.198 25.7529 107.781 25.734C106.949 25.6961 106.153 25.3932 105.567 24.8441C104.979 24.3139 104.638 23.5565 104.638 22.7802C104.638 22.0039 104.979 21.2465 105.567 20.7164C106.153 20.1673 106.949 19.8643 107.781 19.8264C108.198 19.8075 108.615 19.8643 109.031 19.9779C109.429 20.0915 109.826 20.2999 110.167 20.5649C110.868 21.0762 111.323 21.9092 111.323 22.7802C111.323 23.6512 110.868 24.4843 110.167 25.0145ZM120.469 17.7637C120.771 17.7637 121.093 17.7826 121.415 17.8205C121.605 17.8584 121.794 17.9151 121.983 17.9719L121.491 20.0926C121.453 20.074 121.421 20.0554 121.388 20.0368L121.388 20.0367L121.388 20.0366C121.355 20.0174 121.321 19.9982 121.282 19.979C121.055 19.8465 120.791 19.7707 120.469 19.7518C120.128 19.7139 119.844 19.7328 119.541 19.8086C119.238 19.8844 118.935 20.0169 118.651 20.263C118.385 20.4903 118.159 20.8311 117.988 21.1908C117.837 21.5506 117.742 21.9482 117.723 22.3647C117.704 22.4783 117.685 22.6109 117.685 22.7245V27.5149H115.508V18.0477H117.685V19.1838C117.932 18.8429 118.253 18.5211 118.669 18.2939C119.2 17.9719 119.844 17.8016 120.469 17.7637ZM131.088 18.0462V19.3527C130.671 18.9361 130.161 18.5574 129.592 18.2923C128.968 18.0083 128.267 17.8569 127.547 17.8379C126.847 17.8379 126.127 17.9516 125.465 18.1976C124.801 18.4628 124.215 18.8414 123.723 19.2959C122.756 20.2237 122.208 21.5112 122.227 22.7798C122.208 24.0484 122.756 25.336 123.723 26.2637C124.215 26.7371 124.801 27.1157 125.465 27.3619C126.127 27.6081 126.847 27.7406 127.547 27.7217C128.267 27.7028 128.968 27.5513 129.592 27.2672C130.161 27.0022 130.671 26.6424 131.088 26.207V27.5134H133.266V18.0462H131.088ZM129.933 25.014C129.592 25.2792 129.194 25.4685 128.797 25.5821C128.38 25.6957 127.964 25.7525 127.547 25.7335C126.714 25.6957 125.919 25.3928 125.332 24.8436C124.745 24.3135 124.405 23.5561 124.405 22.7798C124.405 22.0035 124.745 21.2461 125.332 20.716C125.919 20.1669 126.714 19.8639 127.547 19.826C127.964 19.8071 128.38 19.8639 128.797 19.9775C129.194 20.0911 129.592 20.2994 129.933 20.5644C130.634 21.0757 131.088 21.9088 131.088 22.7798C131.088 23.6508 130.634 24.4839 129.933 25.014Z" fill="white"/>
</svg>
