<svg width="175" height="50" viewBox="0 0 175 50" fill="none" xmlns="http://www.w3.org/2000/svg">
<path fill-rule="evenodd" clip-rule="evenodd" d="M55.4538 24.7343L61.9151 33.5131C62.8736 34.8157 62.9703 36.5616 62.1627 37.9632C61.3528 39.3649 59.7914 40.1546 58.185 39.9747L47.3523 38.7687C46.1756 38.6382 45.1609 38.024 44.4995 37.1286C44.3465 36.9238 44.108 36.8023 43.8537 36.8023C43.5996 36.8023 43.3588 36.9238 43.208 37.1286C42.5466 38.024 41.5319 38.6382 40.3553 38.7687L29.5225 39.9747C27.9161 40.1524 26.3548 39.3626 25.5448 37.9632C24.7372 36.5616 24.8339 34.8157 25.7923 33.5131L32.2538 24.7343C32.9557 23.7804 33.9951 23.209 35.102 23.083C35.354 23.0537 35.5767 22.9076 35.705 22.6871C35.8309 22.4665 35.8467 22.1989 35.7455 21.9648C35.3022 20.9435 35.2775 19.7578 35.7522 18.6734L40.1236 8.6888C40.7715 7.20842 42.2362 6.25 43.8537 6.25C45.4714 6.25 46.9361 7.20617 47.5839 8.6888L51.9553 18.6734C52.4322 19.7578 52.4053 20.9435 51.962 21.9648C51.8608 22.1989 51.8743 22.4665 52.0025 22.6871C52.1286 22.9076 52.3536 23.0537 52.6055 23.083C53.7124 23.209 54.7518 23.7804 55.4538 24.7343ZM42.956 9.93069L38.578 19.9266H38.5757C38.4385 20.2415 38.4677 20.606 38.6567 20.894C38.8457 21.1819 39.1674 21.3552 39.5116 21.3552H48.1982C48.5447 21.3552 48.8641 21.1819 49.0531 20.894C49.2421 20.606 49.2714 20.2415 49.1341 19.9266L44.756 9.93069C44.5984 9.57297 44.2452 9.34124 43.8559 9.34124C43.4668 9.34124 43.1136 9.57297 42.956 9.93069ZM40.0268 35.6977C40.3688 35.6595 40.6702 35.4525 40.8255 35.1442L40.8277 35.1464C40.9829 34.8406 40.974 34.4761 40.8008 34.1768L40.7941 34.1656L36.4631 26.6647L36.4564 26.6534C36.2831 26.3542 35.9727 26.163 35.6285 26.145C35.2842 26.1248 34.9558 26.2823 34.751 26.559L28.2828 35.3467C28.0511 35.6617 28.0264 36.0824 28.2221 36.4199C28.4178 36.7574 28.7958 36.9463 29.1828 36.9036L40.0268 35.6977ZM43.8537 32.2668C44.2228 32.2668 44.5602 32.0687 44.7447 31.7515L48.0699 25.9898C48.2544 25.6726 48.2544 25.2811 48.0699 24.9617C47.8853 24.6421 47.5457 24.4487 47.179 24.4487H40.5263C40.1574 24.4487 39.8199 24.6466 39.6354 24.9639C39.4509 25.2811 39.4509 25.6748 39.6354 25.992L42.9628 31.7538C43.1474 32.0711 43.487 32.2668 43.8537 32.2668ZM58.5271 36.9058C58.9162 36.9487 59.292 36.7574 59.4876 36.4199H59.4899C59.6833 36.0824 59.6609 35.6617 59.4292 35.3467L52.961 26.559C52.7562 26.2823 52.4278 26.127 52.0835 26.145C51.7393 26.163 51.4288 26.3542 51.2556 26.6534L51.2489 26.6647L46.9181 34.1656L46.9112 34.1768C46.738 34.4737 46.7291 34.8383 46.8843 35.1464C47.0395 35.4547 47.341 35.6617 47.683 35.6999L58.5271 36.9058ZM106.753 9.43055C106.279 8.9801 105.675 8.75488 104.94 8.75488C104.157 8.75488 103.529 8.9801 103.055 9.43055C102.581 9.881 102.344 10.4974 102.344 11.2798C102.344 12.0384 102.581 12.6429 103.055 13.0934C103.529 13.5438 104.157 13.7691 104.94 13.7691C105.675 13.7691 106.279 13.5438 106.753 13.0934C107.251 12.6429 107.5 12.0384 107.5 11.2798C107.5 10.4974 107.251 9.881 106.753 9.43055ZM102.877 16.5429V35.2838H106.931V16.5429H102.877ZM92.1181 34.9272C93.1376 34.5005 93.9554 33.8486 94.5717 32.9714L94.7496 35.2829H98.2701V25.1834C98.2701 23.7847 98.128 22.4925 97.8435 21.3073C97.5589 20.1218 97.0019 19.1024 96.172 18.2489C95.4372 17.514 94.5717 16.9924 93.5761 16.6842C92.5804 16.376 91.5017 16.2219 90.3399 16.2219C89.4391 16.2219 88.5382 16.3168 87.6374 16.5064C86.7602 16.6961 85.9541 17.0161 85.2191 17.4666C84.5079 17.917 83.8915 18.486 83.3699 19.1735C82.872 19.861 82.552 20.7027 82.4097 21.6983H86.5705C86.7838 20.9872 87.2106 20.4775 87.8507 20.1693C88.5145 19.8611 89.2968 19.707 90.1978 19.707C91.7387 19.7307 92.8174 20.1218 93.4339 20.8805C94.0503 21.6392 94.3585 22.7059 94.3585 24.0811H89.5576C88.5145 24.0811 87.5187 24.1996 86.5705 24.4366C85.6222 24.65 84.7923 24.9819 84.0811 25.4323C83.3937 25.8829 82.8484 26.4756 82.4453 27.2104C82.0423 27.9216 81.8408 28.7871 81.8408 29.8064C81.8408 30.731 82.0185 31.5609 82.3742 32.2957C82.7299 33.007 83.2158 33.6116 83.8322 34.1094C84.4487 34.5835 85.1599 34.9391 85.9659 35.1762C86.7957 35.4133 87.7084 35.5319 88.7041 35.5319C89.9606 35.5319 91.0986 35.3304 92.1181 34.9272ZM90.4467 26.9615H94.3585C94.3585 27.9097 94.2281 28.7277 93.9673 29.4153C93.7301 30.0791 93.3865 30.6363 92.9359 31.0867C92.4855 31.5134 91.9402 31.8215 91.3001 32.0113C90.6837 32.2009 90.008 32.2957 89.2732 32.2957C88.3248 32.2957 87.5187 32.0705 86.8549 31.6201C86.2149 31.1459 85.8948 30.4584 85.8948 29.5575C85.8948 28.8226 86.1318 28.2654 86.606 27.8861C87.1038 27.4831 87.6965 27.2342 88.3841 27.1393C89.0716 27.0208 89.7591 26.9615 90.4467 26.9615ZM139.154 16.2219C140.648 16.2219 141.963 16.459 143.101 16.9332C144.239 17.4073 145.2 18.0711 145.982 18.9246C146.788 19.7544 147.392 20.762 147.795 21.9473C148.198 23.1327 148.4 24.4485 148.4 25.8946C148.4 27.3645 148.198 28.6922 147.795 29.8776C147.416 31.0392 146.835 32.0468 146.053 32.9003C145.271 33.7537 144.299 34.4058 143.137 34.8562C141.999 35.3066 140.671 35.5319 139.154 35.5319C137.66 35.5319 136.345 35.3066 135.207 34.8562C134.069 34.382 133.109 33.7301 132.326 32.9003C131.567 32.0468 130.987 31.0273 130.584 29.8419C130.204 28.6567 130.015 27.3408 130.015 25.8946C130.015 24.4485 130.204 23.1327 130.584 21.9473C130.987 20.762 131.579 19.7544 132.362 18.9246C133.144 18.0711 134.104 17.4073 135.242 16.9332C136.38 16.459 137.684 16.2219 139.154 16.2219ZM139.154 32.0113C140.079 32.0113 140.861 31.8571 141.501 31.549C142.165 31.2171 142.698 30.7784 143.101 30.2332C143.528 29.6879 143.836 29.0477 144.026 28.3129C144.239 27.5779 144.346 26.7837 144.346 25.9303C144.346 25.0768 144.239 24.2826 144.026 23.5476C143.836 22.7889 143.528 22.137 143.101 21.5917C142.698 21.0465 142.165 20.6197 141.501 20.3115C140.861 20.0033 140.079 19.8492 139.154 19.8492C138.253 19.8492 137.483 20.0033 136.843 20.3115C136.202 20.6197 135.669 21.0465 135.242 21.5917C134.816 22.137 134.496 22.7889 134.282 23.5476C134.092 24.2826 133.998 25.0768 133.998 25.9303C133.998 26.7837 134.092 27.5779 134.282 28.3129C134.496 29.0477 134.804 29.6879 135.207 30.2332C135.633 30.7784 136.167 31.2171 136.807 31.549C137.471 31.8571 138.253 32.0113 139.154 32.0113ZM115.64 24.1858H118.555L123.392 16.5401H127.944L122.04 25.4661L128.442 35.281H123.748L118.805 27.7064H115.64V35.281H111.621V10.8826H115.64V24.1858ZM79.101 16.4868H74.3007V10.8826H73.0603L67.2266 18.8085V19.8335H70.2222V29.1092C70.2222 31.2987 70.7155 32.8748 71.7021 33.8373C72.7126 34.7997 74.3849 35.281 76.7188 35.281H78.9566V31.7439H77.0797C75.9971 31.7439 75.2631 31.4793 74.8781 30.9499C74.4931 30.4205 74.3007 29.6144 74.3007 28.5316V19.8335H79.101V16.4868Z" fill="white"/>
</svg>
