<svg width="150" height="50" viewBox="0 0 150 50" fill="none" xmlns="http://www.w3.org/2000/svg">
<path fill-rule="evenodd" clip-rule="evenodd" d="M27.5054 8.75C25.2277 8.75 23.0917 9.35853 21.2515 10.4241C20.0735 11.1035 19.0177 11.971 18.1257 12.9852C16.1804 15.1896 15 18.0856 15 21.2553V30.635L18.1257 33.7607V21.2553C18.1257 18.4791 19.333 15.9814 21.2515 14.2634C22.1532 13.4569 23.2139 12.8215 24.3772 12.4109C25.3547 12.0639 26.408 11.8757 27.5029 11.8757C32.6815 11.8757 36.8825 16.0743 36.8825 21.2553C36.8825 26.4364 32.6839 30.635 27.5029 30.635V33.7607C34.4093 33.7607 40.0083 28.1618 40.0083 21.2553C40.0083 14.3489 34.4142 8.75 27.5054 8.75ZM30.6418 21.2441C30.6418 22.9695 29.2415 24.3699 27.5161 24.3699V27.4956C30.9693 27.4956 33.77 24.6949 33.77 21.2417C33.77 17.7885 30.9693 14.9878 27.5161 14.9878C26.3773 14.9878 25.3093 15.2908 24.3904 15.826C22.5208 16.9062 21.2646 18.9273 21.2646 21.2417V36.8752L24.0751 39.6857L24.3904 40.0009V21.2441C24.3904 19.5188 25.7907 18.1184 27.5161 18.1184C29.2415 18.1184 30.6418 19.5188 30.6418 21.2441ZM55.943 25.1306V28.1006V28.104H62.668C63.6368 28.104 64.5021 27.9466 65.2605 27.6318C66.0222 27.317 66.6636 26.8797 67.1848 26.3165C67.7059 25.7498 68.1068 25.0782 68.3841 24.2981C68.658 23.518 68.7984 22.6715 68.7984 21.7025C68.7984 20.7335 68.6614 19.866 68.3841 19.0929C68.1068 18.3233 67.7059 17.6656 67.1848 17.1269C66.6603 16.5882 66.0188 16.1684 65.2605 15.8711C64.4988 15.5738 63.6368 15.4233 62.668 15.4233H50.8984V33.3233H53.8016V18.4947H62.668C63.6936 18.4947 64.4954 18.792 65.0734 19.3867C65.6513 19.9814 65.9386 20.8035 65.9386 21.8004C65.9386 22.7974 65.648 23.602 65.0734 24.2141C64.4988 24.8263 63.697 25.1306 62.668 25.1306H55.943ZM79.492 26.3165V33.3233H82.4751V26.3165L91.5744 15.4233H87.7662L81.0909 23.5145L74.4394 15.4233H70.4199L79.492 26.3165ZM103.031 33.3233V18.4912H94.8291V15.4233H114.356V18.4912H106.143V33.3233H103.031ZM137.136 15.4233H133.882V33.3233H137.136V15.4233ZM120.729 33.3233V25.3825H132.272V22.6645H120.729V15.4233H117.627V33.3233H120.729Z" fill="white"/>
</svg>
