<svg width="125" height="50" viewBox="0 0 125 50" fill="none" xmlns="http://www.w3.org/2000/svg">
<path fill-rule="evenodd" clip-rule="evenodd" d="M81.1634 17.3262C86.6694 18.5029 85.9623 25.0481 85.9623 25.0481C86.189 25.0481 86.3725 25.2316 86.3698 25.4584V25.7202C86.3698 25.9469 86.1863 26.1304 85.9596 26.1304C85.9596 26.1304 86.6667 32.6729 81.1607 33.8524V39.461C86.521 40.716 85.8246 47.1532 85.8246 47.1532H82.8314C82.8314 43.245 81.5358 42.5891 81.0986 42.4785C81.0284 42.4596 80.9582 42.5136 80.9582 42.5865V43.8307C80.9582 44.519 80.5183 44.8968 80.0811 45.102C79.5278 45.3611 78.88 45.3611 78.3267 45.102C77.8867 44.8968 77.4495 44.519 77.4495 43.8307V42.5865C77.4495 42.5136 77.382 42.4569 77.3118 42.4758C76.8773 42.5837 75.5764 43.2369 75.5764 47.1505H72.5831C72.5831 47.1505 71.8625 40.4704 77.5548 39.3935V33.8578C72.0082 32.7026 72.7181 26.1277 72.7181 26.1277V25.0481C72.7181 25.0481 72.0082 18.4732 77.5575 17.3127V11.507C71.8652 10.4301 72.5858 3.75 72.5858 3.75H75.5791C75.5791 7.65821 76.8746 8.31407 77.3118 8.42473C77.382 8.44363 77.4522 8.38965 77.4522 8.31677V7.07252C77.4522 6.38426 77.8921 6.0064 78.3294 5.80127C78.8827 5.54216 79.5305 5.54216 80.0838 5.80127C80.5237 6.0064 80.9609 6.38426 80.9609 7.07252V8.31677C80.9609 8.38965 81.0284 8.44633 81.0986 8.42743C81.5331 8.31947 82.8341 7.6663 82.8341 3.7527H85.8273C85.8273 3.7527 86.5237 10.1899 81.1634 11.445V17.3262ZM82.9717 26.1277H82.6047C82.3779 26.1277 82.1944 25.9442 82.1944 25.7229V25.4611C82.1944 25.2343 82.3779 25.0508 82.6047 25.0508H82.9717C82.9717 21.1453 81.6762 20.4867 81.2389 20.3761C81.1688 20.3572 81.0986 20.4112 81.0986 20.484V21.7283C81.0986 22.4165 80.6587 22.7944 80.2214 22.9995C79.6681 23.2586 79.0203 23.2586 78.467 22.9995C78.0271 22.7944 77.5898 22.4165 77.5898 21.7283V20.4813C77.5898 20.4085 77.5224 20.3518 77.4522 20.3707C77.0176 20.4786 75.7167 21.1318 75.7167 25.0454V26.125C75.7167 30.0305 77.0122 30.6891 77.4495 30.7998C77.5197 30.8186 77.5898 30.7647 77.5898 30.6918V29.4475C77.5898 28.7593 78.0298 28.3814 78.467 28.1763C79.0203 27.9172 79.6681 27.9172 80.2214 28.1763C80.6614 28.3814 81.0986 28.7593 81.0986 29.4475V30.6918C81.0986 30.7647 81.1661 30.8213 81.2362 30.8025C81.6708 30.6945 82.9717 30.0413 82.9717 26.1277ZM105.746 13.929C105.746 13.929 106.426 7.63218 101.255 6.27996V3.75366H97.252V6.21518C91.7973 7.42165 92.5017 13.929 92.5017 13.929V15.0086C92.5017 15.0086 91.7973 21.516 97.2547 22.7225V28.1287C91.5058 29.1759 92.2318 35.8965 92.2318 35.8965V36.9761C92.2318 36.9761 91.5274 43.4835 96.9821 44.69V47.1515H100.988V44.6252C106.159 43.273 105.479 36.9761 105.479 36.9761C105.705 36.9761 105.889 36.7926 105.889 36.5659V36.3041C105.889 36.0773 105.705 35.8938 105.479 35.8938C105.479 35.8938 106.153 29.6509 101.055 28.2609V22.7225H100.996C106.45 21.516 105.749 15.0086 105.749 15.0086C105.975 15.0086 106.159 14.8251 106.159 14.5984V14.3366C106.156 14.1126 105.973 13.929 105.746 13.929ZM102.483 35.8938H102.116C101.889 35.8938 101.705 36.0773 101.705 36.3041V36.5659C101.705 36.7926 101.889 36.9761 102.116 36.9761H102.483C102.483 40.8816 101.185 41.5402 100.75 41.6508C100.677 41.6697 100.61 41.6158 100.61 41.5429V40.2986C100.61 39.6104 100.172 39.2325 99.7325 39.0274C99.1792 38.7683 98.5314 38.7683 97.9781 39.0274C97.5408 39.2325 97.1009 39.6104 97.1009 40.2986V41.5429C97.1009 41.6158 97.0334 41.6697 96.9632 41.6535C96.5287 41.5456 95.2278 40.8924 95.2278 36.9788V35.8992C95.2278 31.9937 96.526 31.3351 96.9605 31.2245C97.0334 31.2056 97.1009 31.2596 97.1009 31.3324V32.5767C97.1009 33.2649 97.5381 33.6428 97.9781 33.8479C98.5314 34.107 99.1792 34.107 99.7325 33.8479C100.17 33.6428 100.61 33.2649 100.61 32.5767V31.3324C100.61 31.2596 100.677 31.2056 100.747 31.2218C101.182 31.3297 102.483 31.9829 102.483 35.8938ZM102.388 15.0086H102.755C102.755 18.9223 101.454 19.5754 101.02 19.6834C100.95 19.7023 100.882 19.6456 100.882 19.5727V18.3285C100.882 17.6402 100.445 17.2623 100.005 17.0572C99.4518 16.7981 98.804 16.7981 98.2507 17.0572C97.8134 17.2623 97.3735 17.6402 97.3735 18.3285V19.5727C97.3735 19.6456 97.3033 19.6996 97.2331 19.6807C96.7959 19.57 95.5004 18.9115 95.5004 15.0059V13.9263C95.5004 10.0127 96.8013 9.35956 97.2358 9.2516C97.306 9.23271 97.3735 9.28939 97.3735 9.36226V10.6092C97.3735 11.2975 97.8107 11.6753 98.2507 11.8805C98.804 12.1396 99.4518 12.1396 100.005 11.8805C100.442 11.6753 100.882 11.2975 100.882 10.6092V9.36496C100.882 9.29209 100.952 9.23811 101.023 9.257C101.46 9.36766 102.755 10.0235 102.755 13.9317H102.388C102.162 13.9317 101.978 14.1153 101.978 14.342V14.6038C101.978 14.8251 102.162 15.0086 102.388 15.0086ZM53.4839 22.3033C53.4245 22.1144 53.3814 21.9228 53.349 21.7284L53.3425 21.693L53.3425 21.6926C53.3284 21.6149 53.3141 21.5357 53.2977 21.4585C53.2545 21.2642 53.2086 21.0726 53.1573 20.8809C54.0075 19.5962 58.0669 12.8891 53.4461 8.58413C48.318 3.80683 42.3261 10.0686 42.3261 10.0686L42.345 10.0956C39.6513 9.27778 36.731 9.18062 33.8916 10.0686C33.8565 10.0308 27.8862 3.82033 22.7716 8.58413C17.6569 13.3479 23.1791 21.0564 23.2088 21.0969C23.1494 21.2777 23.1035 21.4639 23.0712 21.6502C22.849 22.9754 22.1088 23.9326 21.3022 24.9755C20.0998 26.5303 18.75 28.2756 18.75 31.7149C18.75 37.4611 22.6906 42.1871 30.7337 42.1871H34.0346C34.0481 42.2087 35.4085 44.1332 38.1993 44.1332C40.7903 44.1305 42.4988 42.206 42.515 42.1871H45.6648C53.7079 42.1871 57.6485 37.5718 57.6485 31.7149C57.6485 28.2761 56.2979 26.5303 55.095 24.9756C54.4267 24.1118 53.804 23.3069 53.4839 22.3033Z" fill="white"/>
</svg>
