<svg width="150" height="50" viewBox="0 0 150 50" fill="none" xmlns="http://www.w3.org/2000/svg">
<g clip-path="url(#clip0_11921_94339)">
<path fill-rule="evenodd" clip-rule="evenodd" d="M70.1013 17.2402H73.3814V31.7979H70.8592L70.4989 30.8661C70.1372 31.2506 69.6981 31.5539 69.2104 31.756C68.7228 31.9581 68.1978 32.0542 67.6702 32.0382C66.751 32.0455 65.8484 31.7944 65.0651 31.3133C64.2766 30.8349 63.6258 30.1599 63.1766 29.3544C62.72 28.5306 62.4805 27.6042 62.4805 26.6624C62.4805 25.7205 62.72 24.7941 63.1766 23.9703C63.6277 23.1671 64.28 22.4948 65.0693 22.0196C65.8536 21.5456 66.7537 21.2976 67.6702 21.3031C68.5493 21.2804 69.4088 21.5645 70.1013 22.1066V17.2402ZM67.9808 28.9858C68.3867 28.9889 68.7864 28.8861 69.1404 28.6876C69.4878 28.4934 69.7745 28.2066 69.9688 27.8592C70.1739 27.5002 70.2784 27.0924 70.2711 26.6789C70.276 26.2628 70.1749 25.8523 69.9771 25.4862C69.7821 25.1393 69.4956 24.8528 69.1487 24.6578C68.7965 24.4623 68.4002 24.3599 67.9974 24.3599C67.5945 24.3599 67.1983 24.4623 66.846 24.6578C66.4997 24.8534 66.2133 25.1398 66.0177 25.4862C65.8199 25.8523 65.7187 26.2628 65.7236 26.6789C65.7162 27.0909 65.816 27.4977 66.0136 27.8592C66.1998 28.2043 66.4779 28.4909 66.817 28.6876C67.166 28.8876 67.562 28.9906 67.9642 28.9858H67.9808ZM83.0313 21.5309H85.4583V31.8104H82.9361L82.5757 30.8661C82.2141 31.2506 81.775 31.5539 81.2873 31.756C80.7997 31.9581 80.2746 32.0542 79.7471 32.0382C78.8279 32.0459 77.9251 31.7947 77.142 31.3133C76.3534 30.8349 75.7027 30.1599 75.2535 29.3544C74.7969 28.5306 74.5574 27.6042 74.5574 26.6624C74.5574 25.7205 74.7969 24.7941 75.2535 23.9703C75.7045 23.1671 76.3568 22.4948 77.1462 22.0196C77.9305 21.5456 78.8306 21.2976 79.7471 21.3031C80.2843 21.289 80.8183 21.3901 81.3134 21.5994C81.8084 21.8087 82.2529 22.1215 82.6172 22.5166L83.0313 21.5185V21.5309ZM80.0535 28.9858C80.4608 28.989 80.8618 28.8862 81.2173 28.6876C81.5646 28.4934 81.8514 28.2066 82.0456 27.8592C82.2508 27.5002 82.3552 27.0924 82.348 26.6789C82.353 26.2628 82.2518 25.8523 82.0539 25.4862C81.8589 25.1393 81.5724 24.8528 81.2256 24.6578C80.8726 24.4624 80.4756 24.3599 80.0722 24.3599C79.6686 24.3599 79.2717 24.4624 78.9187 24.6578C78.5807 24.8572 78.3019 25.1432 78.1111 25.4862C77.9133 25.8523 77.8122 26.2628 77.8171 26.6789C77.8096 27.0909 77.9095 27.4977 78.1069 27.8592C78.2916 28.2041 78.5684 28.4909 78.9063 28.6876C79.2555 28.8871 79.6514 28.9899 80.0535 28.9858ZM92.9711 21.3031C93.8862 21.2984 94.7848 21.5464 95.5679 22.0196C96.3582 22.4936 97.0108 23.1661 97.4607 23.9703C97.9198 24.7933 98.1609 25.72 98.1609 26.6624C98.1609 27.6047 97.9198 28.5314 97.4607 29.3544C97.014 30.1605 96.3645 30.8359 95.5762 31.3133C94.7931 31.7947 93.8903 32.0459 92.9711 32.0382C92.091 32.0594 91.2306 31.7755 90.5359 31.2347V35.2396H87.2557V21.5185H89.6827L90.0969 22.5166C90.4606 22.1208 90.905 21.8076 91.4002 21.5982C91.8953 21.3889 92.4296 21.2883 92.967 21.3031H92.9711ZM92.6605 28.9858C93.064 28.9899 93.4612 28.8871 93.8119 28.6876C94.1497 28.492 94.4254 28.2048 94.6071 27.8592C94.8058 27.498 94.9071 27.0913 94.9011 26.6789C94.9061 26.2628 94.8049 25.8523 94.6071 25.4862C94.4101 25.1409 94.124 24.8548 93.7787 24.6578C93.4265 24.4623 93.0302 24.3599 92.6274 24.3599C92.2246 24.3599 91.8284 24.4623 91.476 24.6578C91.1292 24.8528 90.8427 25.1393 90.6477 25.4862C90.4487 25.852 90.346 26.2625 90.3496 26.6789C90.3443 27.0922 90.4487 27.4994 90.6519 27.8592C90.8466 28.2062 91.1332 28.4928 91.4802 28.6876C91.8343 28.8861 92.2339 28.9889 92.6398 28.9858H92.6605ZM105.048 21.3031C105.963 21.2984 106.862 21.5464 107.645 22.0196C108.44 22.503 109.097 23.1845 109.551 23.9974C110.005 24.8104 110.24 25.7272 110.233 26.6582C110.242 27.6024 110.002 28.5322 109.538 29.3544C109.09 30.1597 108.44 30.8346 107.653 31.3133C106.87 31.7937 105.967 32.0448 105.048 32.0382C104.168 32.0594 103.308 31.7755 102.613 31.2347V35.2396H99.3326V21.5185H101.76L102.174 22.5166C102.539 22.1211 102.984 21.8082 103.48 21.5989C103.975 21.3896 104.51 21.2887 105.048 21.3031ZM104.737 28.9858C105.141 28.9899 105.538 28.8871 105.889 28.6876C106.225 28.4894 106.5 28.2029 106.684 27.8592C106.883 27.498 106.984 27.0913 106.978 26.6789C106.983 26.2628 106.882 25.8523 106.684 25.4862C106.487 25.1409 106.201 24.8548 105.856 24.6578C105.503 24.4623 105.107 24.3599 104.704 24.3599C104.301 24.3599 103.905 24.4623 103.553 24.6578C103.206 24.8528 102.92 25.1393 102.725 25.4862C102.526 25.852 102.423 26.2625 102.426 26.6789C102.421 27.0922 102.526 27.4994 102.729 27.8592C102.924 28.2062 103.21 28.4928 103.557 28.6876C103.911 28.8861 104.311 28.9889 104.717 28.9858H104.737ZM118.074 32.0382C116.518 32.0428 115.004 31.5348 113.766 30.5928C112.527 29.6507 111.635 28.327 111.224 26.8264C110.814 25.3258 110.91 23.7317 111.497 22.291C112.083 20.8501 113.128 19.6427 114.47 18.8554C115.567 18.2391 116.804 17.9152 118.063 17.9152C119.322 17.9152 120.559 18.2391 121.656 18.8554C122.721 19.4637 123.603 20.3443 124.215 21.4067C124.846 22.4838 125.18 23.7085 125.184 24.9567C125.188 26.2047 124.86 27.4315 124.235 28.5121C123.611 29.5928 122.712 30.4886 121.628 31.1088C120.545 31.7289 119.317 32.0509 118.069 32.0423L118.074 32.0382ZM118.074 28.6918C118.693 28.6945 119.3 28.5253 119.83 28.203C120.373 27.8732 120.821 27.408 121.13 26.8529C121.454 26.2782 121.621 25.6283 121.615 24.9685C121.62 24.3208 121.458 23.6828 121.143 23.117C120.828 22.5513 120.371 22.0774 119.817 21.7421C119.29 21.4223 118.684 21.2532 118.067 21.2532C117.45 21.2532 116.845 21.4223 116.318 21.7421C115.775 22.0705 115.327 22.5343 115.017 23.0881C114.694 23.6623 114.524 24.3098 114.524 24.9685C114.524 25.6271 114.694 26.2747 115.017 26.8487C115.328 27.4052 115.779 27.8706 116.325 28.1989C116.851 28.5227 117.456 28.6934 118.074 28.6918ZM131.256 32.0298C130.195 32.0374 129.144 31.8229 128.17 31.4004C127.198 30.9676 126.324 30.3404 125.603 29.5573L127.81 27.2587C128.881 28.2831 130 28.7953 131.165 28.7953C131.598 28.8283 132.031 28.7302 132.408 28.5136C132.537 28.433 132.643 28.3199 132.716 28.1855C132.788 28.0512 132.825 27.9002 132.821 27.7475C132.827 27.5425 132.764 27.3415 132.643 27.176C132.456 26.9625 132.22 26.7966 131.956 26.6914C131.473 26.4774 130.974 26.2989 130.465 26.1571C129.445 25.8697 128.495 25.3795 127.669 24.7158C127.274 24.3702 126.964 23.9382 126.763 23.4534C126.562 22.9687 126.475 22.444 126.51 21.9203C126.505 21.2267 126.674 20.5433 127.003 19.9323C127.352 19.2978 127.886 18.7849 128.535 18.462C129.355 18.0624 130.262 17.8704 131.173 17.9029C132.118 17.8892 133.057 18.0609 133.936 18.4082C134.763 18.7511 135.523 19.2376 136.181 19.8453L134.209 22.2516C133.823 21.9008 133.378 21.6205 132.896 21.4233C132.4 21.1992 131.862 21.082 131.318 21.0795C130.972 21.0568 130.63 21.1485 130.341 21.3404C130.232 21.4226 130.144 21.5298 130.085 21.6531C130.026 21.7763 129.997 21.912 130.001 22.0486C130.002 22.1354 130.02 22.2209 130.057 22.2996C130.093 22.3782 130.147 22.448 130.212 22.5042C130.38 22.6563 130.576 22.7757 130.788 22.8562C131.032 22.9598 131.409 23.0964 131.923 23.2704L132.043 23.316L132.192 23.3698C132.985 23.6346 133.748 23.9815 134.47 24.4052C135.038 24.739 135.517 25.2032 135.87 25.7595C136.212 26.3426 136.382 27.0099 136.362 27.6854C136.386 28.4883 136.169 29.2801 135.738 29.9585C135.308 30.6368 134.684 31.1708 133.948 31.4914C133.1 31.867 132.179 32.0508 131.252 32.0298H131.256Z" fill="white"/>
<path fill-rule="evenodd" clip-rule="evenodd" d="M36.2792 9.81027C37.0786 10.0629 38.9961 10.9161 39.7457 11.2515C41.1828 11.8935 42.6448 12.5727 44.0944 13.1525C44.7214 13.414 45.3699 13.6204 46.0327 13.7697C47.7432 14.13 52.2202 14.6932 52.3114 12.0012C52.3138 11.5828 52.1783 11.1753 51.9261 10.8415C50.899 9.18489 48.4969 7.55311 46.8071 6.5964C46.2273 6.26784 45.6392 5.96412 45.0428 5.68525C44.8856 5.62413 44.7253 5.57159 44.5624 5.52788C43.1791 5.11371 41.7378 4.73683 40.3297 4.41793C39.2105 4.14491 38.0747 3.94568 36.9294 3.82154C36.5891 3.79256 36.2468 3.79256 35.9065 3.82154C35.7574 3.82154 35.571 3.82154 35.4136 3.82154C31.9326 3.94421 28.5386 4.94122 25.5442 6.72065C24.2432 7.55181 23.0093 8.48377 21.8541 9.50794C21.6346 9.69017 21.4151 9.8724 21.1914 10.0505C25.3206 7.80574 32.3654 6.58813 36.2792 9.81027Z" fill="white"/>
<path fill-rule="evenodd" clip-rule="evenodd" d="M36.3061 9.79418C36.0089 9.62378 35.6857 9.50345 35.3494 9.438C30.8848 7.78137 27.0662 6.93235 22.672 9.2185L21.1893 10.0468C21.0759 10.1229 20.9704 10.2104 20.8746 10.3077C20.6244 10.5644 20.4425 10.8798 20.3456 11.2248C20.2486 11.5699 20.2397 11.9338 20.3196 12.2833C21.0899 15.0581 25.4303 14.0476 27.2609 13.5837C29.9115 12.9087 33.7052 10.958 36.3061 9.79418Z" fill="white"/>
<path fill-rule="evenodd" clip-rule="evenodd" d="M23.129 8.36529C32.3108 1.32458 41.1614 3.99177 45.0421 5.68567L36.2785 9.82727C33.0481 8.61378 29.2958 7.59081 25.9245 8.10851C24.8657 8.31096 23.8408 8.66234 22.8805 9.15219C22.1878 9.46343 21.5275 9.84214 20.909 10.2828C20.8304 10.345 21.0292 10.171 21.0292 10.171C21.6794 9.5912 22.3545 8.96996 23.0378 8.43569L23.129 8.36529Z" fill="white"/>
<path fill-rule="evenodd" clip-rule="evenodd" d="M36.3019 40.1679C35.5026 39.9152 33.5808 39.062 32.8353 38.7266C31.3983 38.0846 29.9363 37.4054 28.4867 36.8255C27.8595 36.5648 27.211 36.3582 26.5484 36.2085C24.8338 35.8481 20.3361 35.2849 20.2657 37.9769C20.2632 38.3953 20.3986 38.8029 20.6508 39.1366C21.6779 40.7932 24.0842 42.425 25.774 43.3818C26.3483 43.7076 26.9363 44.0112 27.5383 44.2929C27.6952 44.3546 27.8557 44.4072 28.0187 44.4502C29.3979 44.8644 30.8432 45.2413 32.2473 45.5602C33.3666 45.8326 34.5024 46.0317 35.6475 46.1566C35.9873 46.1924 36.3295 46.1994 36.6705 46.1773C36.8196 46.1773 37.0101 46.1773 37.1634 46.1773C40.6457 46.0546 44.041 45.0576 47.0369 43.2782C48.3359 42.446 49.5683 41.5141 50.7229 40.4909L51.3855 39.9483C47.2564 42.1723 40.2156 43.39 36.3019 40.1679Z" fill="white"/>
<path fill-rule="evenodd" clip-rule="evenodd" d="M36.2695 40.1854C36.5653 40.3558 36.8871 40.4761 37.2221 40.5416C41.6909 42.1983 45.5053 43.0513 49.8995 40.7611L51.3822 39.9328C51.4956 39.8567 51.6011 39.7693 51.6969 39.6718C51.9471 39.4152 52.129 39.0998 52.226 38.7547C52.3229 38.4097 52.3318 38.0457 52.2519 37.6963C51.4816 34.9215 47.1412 35.932 45.3148 36.3958C42.66 37.0792 38.8663 39.0217 36.2695 40.1854Z" fill="white"/>
<path fill-rule="evenodd" clip-rule="evenodd" d="M49.4441 41.634C40.2622 48.6747 31.4158 46.0075 27.5352 44.3136L36.2988 40.1721C39.5291 41.3856 43.2814 42.4086 46.6527 41.8908C47.71 41.6877 48.7335 41.3363 49.6926 40.8472C50.3812 40.5315 51.0361 40.1472 51.6474 39.7C51.7262 39.6378 51.5274 39.8117 51.5274 39.8117C50.8813 40.3916 50.2062 41.0128 49.5228 41.5471L49.4441 41.634Z" fill="white"/>
<path fill-rule="evenodd" clip-rule="evenodd" d="M36.2893 29.3341L36.5419 29.4003C36.6704 29.1725 43.7938 26.8076 44.3695 26.6172C45.7604 26.1624 47.1782 25.7944 48.6147 25.5154L50.8801 25.1924C51.8286 25.1262 52.1226 24.9978 53.3195 25.2256C56.728 25.8882 56.8357 27.7644 57.2002 28.3401C57.2356 28.3887 57.2674 28.4399 57.2954 28.4932C57.2954 28.4932 57.2954 28.4726 57.2954 28.4561C57.3244 27.9094 57.4735 27.2591 57.5025 26.7166C57.6682 23.5068 57.7842 18.5866 54.2348 17.1909C49.9276 15.5094 41.3172 18.6612 36.2852 20.6367L36.2893 29.3341Z" fill="white"/>
<path fill-rule="evenodd" clip-rule="evenodd" d="M36.2891 29.3346C41.7767 30.6474 48.5647 34.9712 54.2387 32.7555C55.0948 32.4007 55.8347 31.8137 56.3749 31.0606C56.9149 30.3075 57.2337 29.4185 57.2952 28.4937C57.3491 27.2058 56.6243 25.868 53.3193 25.2261C51.0289 24.7829 46.5353 25.9136 44.3693 26.6177C43.7936 26.8081 36.4216 29.1109 36.2891 29.3346Z" fill="white"/>
<path fill-rule="evenodd" clip-rule="evenodd" d="M36.2902 20.6439L36.0665 20.5859C35.934 20.8137 28.7856 23.1702 28.1975 23.3608C26.8066 23.8156 25.3888 24.1835 23.9524 24.4624L21.6869 24.7855C21.0409 24.8792 20.3859 24.8945 19.7362 24.831C19.5871 24.8103 19.4339 24.7896 19.2475 24.7524C15.839 24.0938 15.7313 22.2136 15.3668 21.6379C15.329 21.5908 15.2971 21.5394 15.2716 21.4846C15.2716 21.4846 15.2716 21.5054 15.2716 21.5219C15.2426 22.0686 15.0894 22.7189 15.0645 23.2614C14.8988 26.4711 14.7829 31.3954 18.3322 32.787C22.6395 34.4685 31.2499 31.3168 36.2819 29.3412L36.2902 20.6439Z" fill="white"/>
<path fill-rule="evenodd" clip-rule="evenodd" d="M36.2902 20.6442C30.8025 19.3355 24.0145 15.0076 18.3405 17.2233C17.4843 17.5781 16.7444 18.1651 16.2043 18.9182C15.6642 19.6713 15.3455 20.5603 15.284 21.485C15.2301 22.773 15.9508 24.1108 19.2599 24.7527C19.3842 24.7776 19.5167 24.8065 19.6741 24.8232C22.0803 25.0965 26.4621 24.119 28.5081 23.4522C29.0672 23.2618 36.1576 20.872 36.2902 20.6442Z" fill="white"/>
<path fill-rule="evenodd" clip-rule="evenodd" d="M36.2894 29.3336C34.1192 28.3686 26.9087 26.1653 19.8017 24.8441C19.3254 24.753 19.0893 24.6868 18.6172 24.6039C19.6235 24.8592 20.6691 24.921 21.6985 24.7862C26.714 24.0738 31.5555 22.4006 36.2894 20.6445C38.6045 21.6758 46.3865 24.0945 53.9615 25.3742C52.9534 25.121 51.9069 25.0592 50.876 25.192C46.4362 25.8215 40.6629 27.7432 36.3432 29.3336C36.2645 29.3129 36.368 29.3667 36.2894 29.3336Z" fill="white"/>
</g>
<defs>
<clipPath id="clip0_11921_94339">
<rect width="121.705" height="42.5" fill="white" transform="translate(15 3.75)"/>
</clipPath>
</defs>
</svg>
