<svg width="150" height="50" viewBox="0 0 150 50" fill="none" xmlns="http://www.w3.org/2000/svg">
<path fill-rule="evenodd" clip-rule="evenodd" d="M12.5 20.2746L22.2246 7.7832H37.8218L47.5467 20.2746L44.0762 35.8509L30.0235 42.7832L15.9706 35.8509L12.5 20.2746ZM35.0063 10.0381H25.0403L30.0235 16.4387L35.0063 10.0381ZM22.7547 10.7189L15.4602 20.0885L24.2514 23.8527L28.6155 18.2472L22.7547 10.7189ZM44.3808 19.8247L37.8565 11.4441L35.5678 21.7152L44.3808 19.8247ZM35.1457 13.4758L31.431 18.2472L33.4928 20.8951L35.1457 13.4758ZM31.9238 22.4968L30.0235 20.0554L27.3607 23.4757L31.9238 22.4968ZM44.9003 22.0172L35.8738 23.9535L42.5563 32.537L44.9003 22.0172ZM22.8245 25.6857L15.24 22.4384L17.4904 32.537L22.8245 25.6857ZM25.2072 26.2415L18.6468 34.6684L29.2575 39.9025L32.6573 24.6432L25.2072 26.2415ZM41.3997 34.6684L34.6217 25.9617L31.605 39.5L41.3997 34.6684ZM116.306 35.0535H120.379V12.9229H116.306V35.0535ZM71.8504 14.1851C74.2577 14.1851 76.0784 14.7281 77.3129 15.8141C78.5472 16.9002 79.1645 18.3551 79.1645 20.1788C79.1645 21.3673 78.8868 22.4431 78.3312 23.4062C77.7757 24.3488 76.9424 25.0968 75.8316 25.65C74.7205 26.2033 73.3626 26.48 71.7578 26.48H66.419V35.0555H62.1602V14.1851H71.8504ZM71.1716 23.2218C72.4058 23.2218 73.342 22.9554 73.9797 22.4226C74.6177 21.8898 74.9365 21.1726 74.9365 20.271C74.9365 18.3858 73.6712 17.4432 71.1407 17.4432H66.419V23.2218H71.1716ZM84.1036 34.4101C85.3381 35.0864 86.7268 35.4245 88.2699 35.4245C89.8129 35.4245 91.1914 35.0864 92.4051 34.4101C93.6396 33.7135 94.6066 32.74 95.3061 31.4901C96.0057 30.2402 96.3554 28.7852 96.3554 27.1254C96.3554 25.4656 96.0057 24.0107 95.3061 22.7607C94.6066 21.4903 93.6396 20.5169 92.4051 19.8407C91.1914 19.144 89.8129 18.7957 88.2699 18.7957C86.7268 18.7957 85.3381 19.144 84.1036 19.8407C82.8691 20.5169 81.9023 21.4903 81.2027 22.7607C80.5032 24.0107 80.1533 25.4656 80.1533 27.1254C80.1533 28.7852 80.5032 30.2503 81.2027 31.5207C81.9023 32.7709 82.8691 33.7338 84.1036 34.4101ZM91.1091 30.7832C90.3889 31.6847 89.4322 32.1355 88.239 32.1355C87.0457 32.1355 86.0786 31.6847 85.3381 30.7832C84.6179 29.8815 84.2579 28.6622 84.2579 27.1254C84.2579 25.5886 84.6179 24.3693 85.3381 23.4677C86.0786 22.5456 87.0457 22.0845 88.239 22.0845C89.4322 22.0845 90.3889 22.5456 91.1091 23.4677C91.8497 24.3693 92.22 25.5886 92.22 27.1254C92.22 28.6622 91.8497 29.8815 91.1091 30.7832ZM101.726 34.4101C102.96 35.0864 104.349 35.4245 105.892 35.4245C107.435 35.4245 108.813 35.0864 110.027 34.4101C111.262 33.7135 112.229 32.74 112.928 31.4901C113.628 30.2402 113.977 28.7852 113.977 27.1254C113.977 25.4656 113.628 24.0107 112.928 22.7607C112.229 21.4903 111.262 20.5169 110.027 19.8407C108.813 19.144 107.435 18.7957 105.892 18.7957C104.349 18.7957 102.96 19.144 101.726 19.8407C100.491 20.5169 99.5244 21.4903 98.8247 22.7607C98.1253 24.0107 97.7754 25.4656 97.7754 27.1254C97.7754 28.7852 98.1253 30.2503 98.8247 31.5207C99.5244 32.7709 100.491 33.7338 101.726 34.4101ZM108.731 30.7832C108.011 31.6847 107.054 32.1355 105.861 32.1355C104.668 32.1355 103.701 31.6847 102.96 30.7832C102.24 29.8815 101.88 28.6622 101.88 27.1254C101.88 25.5886 102.24 24.3693 102.96 23.4677C103.701 22.5456 104.668 22.0845 105.861 22.0845C107.054 22.0845 108.011 22.5456 108.731 23.4677C109.472 24.3693 109.842 25.5886 109.842 27.1254C109.842 28.6622 109.472 29.8815 108.731 30.7832ZM136.007 31.7038V35.0541H122.736V31.8575L130.699 22.5134H123.045V19.1631H135.914V22.329L127.952 31.7038H136.007Z" fill="white"/>
</svg>
